<?xml version="1.0" standalone="no"?>
<!DOCTYPE svg PUBLIC "-//W3C//DTD SVG 20010904//EN"
 "http://www.w3.org/TR/2001/REC-SVG-20010904/DTD/svg10.dtd">
<svg version="1.0" xmlns="http://www.w3.org/2000/svg"
 width="1163.000000pt" height="1018.000000pt" viewBox="0 0 1163.000000 1018.000000"
 preserveAspectRatio="xMidYMid meet">

<g transform="translate(0.000000,1018.000000) scale(0.100000,-0.100000)"
fill="#000000" stroke="none">
<path d="M1949 8443 c-233 -3 -269 -5 -280 -20 -10 -11 -15 -59 -18 -170 l-3
-153 -247 0 c-135 0 -252 -4 -258 -8 -7 -4 -20 -30 -28 -58 -13 -43 -15 -243
-15 -1541 l0 -1493 55 0 56 0 -3 1495 -3 1495 223 0 222 0 0 -1495 0 -1495 55
0 55 0 0 1670 0 1670 1938 -2 c1875 -3 1939 -4 1987 -22 102 -39 165 -91 211
-176 18 -34 19 -83 22 -1587 l3 -1553 54 0 55 0 2 1543 c3 1542 3 1542 24
1587 26 56 100 124 168 156 122 56 87 55 2101 52 l1850 -3 3 -1667 2 -1668 55
0 55 0 0 1495 0 1495 63 0 c34 0 126 3 205 7 l142 6 0 -1501 0 -1502 55 0 55
0 0 1528 c0 840 -4 1532 -8 1538 -19 30 -55 34 -281 34 l-230 0 -3 161 c-3
146 -5 162 -23 175 -17 12 -285 14 -1970 11 -1818 -2 -1954 -4 -2014 -20 -106
-29 -188 -74 -249 -136 l-55 -56 -72 72 c-85 83 -109 97 -212 124 -74 18 -121
19 -1777 17 -936 -2 -1821 -4 -1967 -5z"/>
<path d="M2533 7700 c-32 -13 -41 -57 -17 -81 18 -18 45 -19 545 -21 573 -3
559 -5 559 53 0 60 7 59 -555 58 -280 0 -520 -4 -532 -9z"/>
<path d="M8090 7684 c-14 -2 -58 -9 -98 -15 -310 -46 -591 -270 -719 -573 -57
-134 -73 -220 -83 -431 l-9 -190 101 -485 c55 -267 107 -497 114 -512 l15 -28
754 0 c672 0 755 2 769 16 9 8 16 22 16 30 0 9 45 232 100 497 55 265 100 493
100 507 -5 328 -33 486 -118 655 -100 200 -291 377 -494 458 -141 57 -335 87
-448 71z m305 -138 c33 -9 107 -39 165 -68 92 -45 116 -63 201 -147 107 -107
162 -191 210 -322 40 -109 59 -210 59 -312 l0 -82 -93 0 c-108 -1 -168 -22
-253 -91 l-51 -42 -60 57 c-66 63 -192 132 -283 156 -172 46 -386 -19 -538
-162 l-55 -51 -51 42 c-85 69 -145 91 -253 91 l-93 0 0 76 c0 152 52 338 131
472 46 78 150 192 225 247 95 71 232 129 364 154 57 10 316 -2 375 -18z m-124
-962 c108 -32 210 -97 264 -168 l26 -34 -40 -78 c-83 -167 -141 -428 -154
-689 l-2 -50 -197 -3 -197 -2 -5 32 c-2 18 -9 89 -15 158 -19 214 -70 414
-143 558 l-37 75 19 27 c70 98 248 189 371 190 30 0 80 -7 110 -16z m-755
-107 c88 -45 168 -150 227 -298 56 -140 107 -408 107 -560 l0 -69 -182 2 -181
3 -93 450 c-52 248 -95 459 -96 469 -6 44 134 45 218 3z m1514 17 c4 -5 -36
-217 -89 -471 l-96 -463 -182 0 -183 0 0 63 c0 87 34 310 65 425 32 120 110
282 164 344 75 85 153 120 249 114 35 -2 67 -8 72 -12z"/>
<path d="M2553 6970 c-49 -20 -53 -78 -7 -98 18 -9 348 -12 1252 -12 1108 0
1230 2 1250 16 32 22 27 74 -8 91 -20 10 -284 13 -1245 12 -678 0 -1230 -4
-1242 -9z"/>
<path d="M2528 6239 c-22 -13 -24 -62 -2 -83 14 -14 142 -16 1264 -16 687 0
1256 3 1265 6 27 11 38 53 20 80 l-15 24 -1258 0 c-835 -1 -1263 -4 -1274 -11z"/>
<path d="M2530 5497 c-19 -10 -25 -20 -25 -47 0 -27 6 -37 25 -47 20 -10 284
-13 1260 -13 976 0 1240 3 1260 13 19 10 25 20 25 47 0 27 -6 37 -25 47 -20
10 -284 13 -1260 13 -976 0 -1240 -3 -1260 -13z"/>
<path d="M5735 4257 c-62 -21 -97 -42 -136 -84 -132 -138 -125 -382 13 -510
112 -102 310 -112 430 -20 48 37 94 106 104 155 l7 32 -59 0 -59 -1 -19 -40
c-49 -106 -225 -135 -316 -53 -49 44 -75 111 -74 189 0 145 82 235 209 234 90
-1 147 -35 185 -109 20 -39 21 -40 75 -40 63 0 67 9 39 76 -45 109 -149 175
-282 181 -46 2 -93 -3 -117 -10z"/>
<path d="M4310 3926 l0 -336 55 0 55 0 0 130 0 130 80 0 80 0 65 -130 65 -130
66 0 c49 0 65 3 61 13 -3 6 -37 68 -75 137 l-70 125 26 14 c65 33 101 95 102
174 0 84 -34 143 -105 180 -35 19 -61 22 -222 25 l-183 4 0 -336z m352 213
c32 -17 51 -74 38 -114 -18 -55 -44 -65 -170 -65 l-110 0 0 95 0 95 111 0 c61
0 119 -5 131 -11z"/>
<path d="M4940 3925 l0 -335 236 0 235 0 -3 53 -3 52 -178 3 -178 2 3 88 3 87
168 3 167 2 0 50 0 50 -170 0 -170 0 0 85 0 85 180 0 180 0 0 55 0 55 -235 0
-235 0 0 -335z"/>
<path d="M6270 3925 l0 -335 55 0 55 0 0 335 0 335 -55 0 -55 0 0 -335z"/>
<path d="M6540 3926 l0 -336 55 0 55 0 0 129 0 128 119 5 c142 6 197 27 239
91 23 34 27 51 27 112 0 62 -4 77 -28 114 -47 71 -90 84 -294 89 l-173 4 0
-336z m333 212 c34 -18 46 -40 46 -83 0 -76 -33 -95 -168 -95 l-101 0 0 95 0
95 101 0 c57 0 110 -5 122 -12z"/>
<path d="M7150 3925 l0 -335 236 0 235 0 -3 53 -3 52 -178 3 -178 2 3 88 3 87
168 3 167 2 0 50 0 50 -170 0 -170 0 0 85 0 85 180 0 180 0 0 55 0 55 -235 0
-235 0 0 -335z"/>
<path d="M10704 2899 c-3 -6 -3 -186 1 -400 l7 -389 -1983 -2 -1984 -3 -78
-22 c-217 -62 -360 -192 -389 -353 l-10 -60 -189 -2 c-104 -2 -235 -3 -290 -3
l-101 0 -4 50 c-13 158 -169 305 -391 368 l-78 22 -2002 3 -2003 2 0 395 0
395 -55 0 -55 0 0 -439 c0 -358 3 -441 14 -450 10 -8 553 -12 2047 -14 1920
-2 2037 -3 2094 -20 97 -29 181 -73 234 -122 68 -64 82 -98 79 -190 -1 -49 2
-79 11 -88 9 -9 104 -13 388 -15 376 -3 376 -3 399 19 21 19 24 32 24 92 0 85
16 121 81 182 53 50 137 93 234 122 56 17 182 18 2066 23 1680 4 2009 7 2022
19 15 12 17 56 17 452 l0 439 -49 0 c-28 0 -53 -5 -57 -11z"/>
<path d="M1654 2733 c5 -140 9 -170 23 -180 13 -10 437 -13 1978 -13 2125 0
2002 3 2099 -54 77 -45 139 -132 152 -215 9 -55 25 -74 63 -74 41 0 50 9 65
76 25 108 90 187 196 236 l55 26 1977 5 c1880 5 1978 6 1995 23 15 15 18 40
21 177 l3 160 -50 0 -51 0 0 -125 0 -125 -1962 -2 -1963 -3 -68 -32 c-38 -18
-87 -47 -108 -64 l-39 -31 0 134 c0 73 -3 150 -6 171 -7 37 -7 37 -54 37 -34
0 -50 -4 -54 -16 -3 -9 -6 -90 -6 -180 l0 -164 -52 42 c-29 24 -82 57 -118 73
l-65 30 -1962 3 -1963 2 0 125 0 125 -57 0 -56 0 7 -167z"/>
</g>
</svg>
